# xmcd CD database file
#
# Track frame offsets:
#	150
#	25847
#	46707
#	75090
#
# Disc length: 1277 seconds
#
# Revision: 2
# Processed by: cddbd v1.4b41PL1 Copyright (c) Steve Scherf et al.
# Submitted via: Feurio! 1.51.12ß - http://www.feurio.com
#
DISCID=1904fb04
DTITLE=ARTICOLO 31 - Guapa Loca and Tu mi Fai cantare 
DYEAR=1900
DGENRE=
TTITLE0=Guapa Loca (Alex Martin Remix)
TTITLE1=Tu mi fai cantare (Kingston Remix by Fausto Cougati)
TTITLE2=Guapa Loca (Alex Martin Latin Dub Remix)
TTITLE3=Tu mi fai cantare (Kingston Instrumental Remix by Fausto Cougati)
EXTD=
EXTT0=
EXTT1=
EXTT2=
EXTT3=
PLAYORDER=
